<svg width="91" height="41" viewBox="0 0 91 41" fill="none" xmlns="http://www.w3.org/2000/svg">
<path d="M4.92325 22.1814L7.07036 19.4771C7.22372 19.2782 7.40584 19.1321 7.61672 19.0388C7.8276 18.9456 8.04806 18.8989 8.27811 18.8989C8.50815 18.8989 8.72861 18.9456 8.93949 19.0388C9.15037 19.1321 9.33249 19.2782 9.48585 19.4771L11.633 22.1814L14.892 23.2445C15.2243 23.344 15.4863 23.5274 15.678 23.7947C15.8697 24.062 15.9655 24.3573 15.9655 24.6806C15.9655 24.8298 15.9432 24.979 15.8984 25.1282C15.8537 25.2774 15.7802 25.4204 15.678 25.5572L13.5692 28.4667L13.6459 31.5254C13.6587 31.9606 13.5117 32.3274 13.205 32.6258C12.8982 32.9242 12.5404 33.0734 12.1314 33.0734C12.1058 33.0734 11.9653 33.0547 11.7096 33.0174L8.27811 32.0849L4.84657 33.0174C4.78266 33.0423 4.71237 33.0578 4.63569 33.0641C4.55901 33.0703 4.48872 33.0734 4.42481 33.0734C4.01584 33.0734 3.65799 32.9242 3.35126 32.6258C3.04453 32.3274 2.89756 31.9606 2.91034 31.5254L2.98702 28.448L0.897422 25.5572C0.795179 25.4204 0.721692 25.2774 0.67696 25.1282C0.632229 24.979 0.609863 24.8298 0.609863 24.6806C0.609863 24.3698 0.702521 24.0807 0.887837 23.8134C1.07315 23.546 1.33196 23.3564 1.66425 23.2445L4.92325 22.1814Z" fill="#FAF7ED"/>
<path d="M79.3388 22.1814L81.4859 19.4771C81.6392 19.2782 81.8214 19.1321 82.0322 19.0388C82.2431 18.9456 82.4636 18.8989 82.6936 18.8989C82.9237 18.8989 83.1441 18.9456 83.355 19.0388C83.5659 19.1321 83.748 19.2782 83.9014 19.4771L86.0485 22.1814L89.3075 23.2445C89.6398 23.344 89.9018 23.5274 90.0935 23.7947C90.2852 24.062 90.381 24.3573 90.381 24.6806C90.381 24.8298 90.3587 24.979 90.3139 25.1282C90.2692 25.2774 90.1957 25.4204 90.0935 25.5572L87.9847 28.4667L88.0614 31.5254C88.0742 31.9606 87.9272 32.3274 87.6205 32.6258C87.3137 32.9242 86.9559 33.0734 86.5469 33.0734C86.5214 33.0734 86.3808 33.0547 86.1252 33.0174L82.6936 32.0849L79.2621 33.0174C79.1982 33.0423 79.1279 33.0578 79.0512 33.0641C78.9745 33.0703 78.9042 33.0734 78.8403 33.0734C78.4314 33.0734 78.0735 32.9242 77.7668 32.6258C77.4601 32.3274 77.3131 31.9606 77.3259 31.5254L77.4025 28.448L75.3129 25.5572C75.2107 25.4204 75.1372 25.2774 75.0925 25.1282C75.0478 24.979 75.0254 24.8298 75.0254 24.6806C75.0254 24.3698 75.118 24.0807 75.3034 23.8134C75.4887 23.546 75.7475 23.3564 76.0798 23.2445L79.3388 22.1814Z" fill="#FAF7ED"/>
<path d="M45.4961 32.2767L58.6358 40.1609L55.1489 25.3014L66.7577 15.3034L51.4706 14.0141L45.4961 0L39.5215 14.0141L24.2344 15.3034L35.8433 25.3014L32.3563 40.1609L45.4961 32.2767Z" fill="#FAF7ED"/>
</svg>
